<mxfile host="app.diagrams.net" agent="Mozilla/5.0 (Windows NT 10.0; Win64; x64) AppleWebKit/537.36 (KHTML, like Gecko) Chrome/130.0.0.0 Safari/537.36" version="24.8.3">
  <diagram name="Page-1" id="MuHSLcD9OfsRbHiyvlul">
    <mxGraphModel dx="2034" dy="3520" grid="1" gridSize="10" guides="1" tooltips="1" connect="1" arrows="1" fold="1" page="1" pageScale="1" pageWidth="827" pageHeight="1169" math="0" shadow="0">
      <root>
        <mxCell id="0" />
        <mxCell id="1" parent="0" />
        <mxCell id="fQdDnlQP9JHUQO5paGz2-3" value="" style="edgeStyle=orthogonalEdgeStyle;rounded=0;orthogonalLoop=1;jettySize=auto;html=1;" edge="1" parent="1" source="fQdDnlQP9JHUQO5paGz2-1" target="fQdDnlQP9JHUQO5paGz2-2">
          <mxGeometry relative="1" as="geometry" />
        </mxCell>
        <mxCell id="fQdDnlQP9JHUQO5paGz2-1" value="Start" style="ellipse;whiteSpace=wrap;html=1;" vertex="1" parent="1">
          <mxGeometry x="354" y="-50" width="120" height="80" as="geometry" />
        </mxCell>
        <mxCell id="fQdDnlQP9JHUQO5paGz2-24" value="" style="edgeStyle=orthogonalEdgeStyle;rounded=0;orthogonalLoop=1;jettySize=auto;html=1;" edge="1" parent="1" source="fQdDnlQP9JHUQO5paGz2-2" target="fQdDnlQP9JHUQO5paGz2-23">
          <mxGeometry relative="1" as="geometry" />
        </mxCell>
        <mxCell id="fQdDnlQP9JHUQO5paGz2-2" value="double a = 0.1, b = 1.0, epsilon = 0.0001; int k = 10, n = 5; double step = (b - a) / k;" style="whiteSpace=wrap;html=1;" vertex="1" parent="1">
          <mxGeometry x="326" y="60" width="176" height="100" as="geometry" />
        </mxCell>
        <mxCell id="fQdDnlQP9JHUQO5paGz2-7" value="" style="edgeStyle=orthogonalEdgeStyle;rounded=0;orthogonalLoop=1;jettySize=auto;html=1;" edge="1" parent="1" source="fQdDnlQP9JHUQO5paGz2-4" target="fQdDnlQP9JHUQO5paGz2-6">
          <mxGeometry relative="1" as="geometry" />
        </mxCell>
        <mxCell id="fQdDnlQP9JHUQO5paGz2-4" value="double x = a;" style="whiteSpace=wrap;html=1;" vertex="1" parent="1">
          <mxGeometry x="354" y="260" width="120" height="60" as="geometry" />
        </mxCell>
        <mxCell id="fQdDnlQP9JHUQO5paGz2-9" value="" style="edgeStyle=orthogonalEdgeStyle;rounded=0;orthogonalLoop=1;jettySize=auto;html=1;" edge="1" parent="1" source="fQdDnlQP9JHUQO5paGz2-6" target="fQdDnlQP9JHUQO5paGz2-8">
          <mxGeometry relative="1" as="geometry" />
        </mxCell>
        <mxCell id="fQdDnlQP9JHUQO5paGz2-19" value="true" style="edgeLabel;html=1;align=center;verticalAlign=middle;resizable=0;points=[];" vertex="1" connectable="0" parent="fQdDnlQP9JHUQO5paGz2-9">
          <mxGeometry x="0.24" y="4" relative="1" as="geometry">
            <mxPoint as="offset" />
          </mxGeometry>
        </mxCell>
        <mxCell id="fQdDnlQP9JHUQO5paGz2-20" style="edgeStyle=orthogonalEdgeStyle;rounded=0;orthogonalLoop=1;jettySize=auto;html=1;" edge="1" parent="1" source="fQdDnlQP9JHUQO5paGz2-6" target="fQdDnlQP9JHUQO5paGz2-21">
          <mxGeometry relative="1" as="geometry">
            <mxPoint x="260" y="1010" as="targetPoint" />
            <Array as="points">
              <mxPoint x="240" y="390" />
            </Array>
          </mxGeometry>
        </mxCell>
        <mxCell id="fQdDnlQP9JHUQO5paGz2-22" value="false" style="edgeLabel;html=1;align=center;verticalAlign=middle;resizable=0;points=[];" vertex="1" connectable="0" parent="fQdDnlQP9JHUQO5paGz2-20">
          <mxGeometry x="-0.8264" y="4" relative="1" as="geometry">
            <mxPoint as="offset" />
          </mxGeometry>
        </mxCell>
        <mxCell id="fQdDnlQP9JHUQO5paGz2-6" value="x &amp;lt;= b;&amp;nbsp;" style="rhombus;whiteSpace=wrap;html=1;" vertex="1" parent="1">
          <mxGeometry x="366" y="350" width="96" height="80" as="geometry" />
        </mxCell>
        <mxCell id="fQdDnlQP9JHUQO5paGz2-11" value="" style="edgeStyle=orthogonalEdgeStyle;rounded=0;orthogonalLoop=1;jettySize=auto;html=1;" edge="1" parent="1" source="fQdDnlQP9JHUQO5paGz2-8" target="fQdDnlQP9JHUQO5paGz2-10">
          <mxGeometry relative="1" as="geometry" />
        </mxCell>
        <mxCell id="fQdDnlQP9JHUQO5paGz2-8" value="cout &amp;lt;&amp;lt; x" style="shape=parallelogram;perimeter=parallelogramPerimeter;whiteSpace=wrap;html=1;fixedSize=1;" vertex="1" parent="1">
          <mxGeometry x="354" y="460" width="120" height="60" as="geometry" />
        </mxCell>
        <mxCell id="fQdDnlQP9JHUQO5paGz2-13" value="" style="edgeStyle=orthogonalEdgeStyle;rounded=0;orthogonalLoop=1;jettySize=auto;html=1;" edge="1" parent="1" source="fQdDnlQP9JHUQO5paGz2-10" target="fQdDnlQP9JHUQO5paGz2-12">
          <mxGeometry relative="1" as="geometry" />
        </mxCell>
        <mxCell id="fQdDnlQP9JHUQO5paGz2-10" value="exact_function(x)" style="shape=process;whiteSpace=wrap;html=1;backgroundOutline=1;" vertex="1" parent="1">
          <mxGeometry x="354" y="554.5" width="120" height="60" as="geometry" />
        </mxCell>
        <mxCell id="fQdDnlQP9JHUQO5paGz2-15" value="" style="edgeStyle=orthogonalEdgeStyle;rounded=0;orthogonalLoop=1;jettySize=auto;html=1;" edge="1" parent="1" source="fQdDnlQP9JHUQO5paGz2-12" target="fQdDnlQP9JHUQO5paGz2-14">
          <mxGeometry relative="1" as="geometry" />
        </mxCell>
        <mxCell id="fQdDnlQP9JHUQO5paGz2-12" value="series_for_n(x,n)" style="shape=process;whiteSpace=wrap;html=1;backgroundOutline=1;" vertex="1" parent="1">
          <mxGeometry x="354" y="640" width="120" height="60" as="geometry" />
        </mxCell>
        <mxCell id="fQdDnlQP9JHUQO5paGz2-17" value="" style="edgeStyle=orthogonalEdgeStyle;rounded=0;orthogonalLoop=1;jettySize=auto;html=1;" edge="1" parent="1" source="fQdDnlQP9JHUQO5paGz2-14" target="fQdDnlQP9JHUQO5paGz2-16">
          <mxGeometry relative="1" as="geometry" />
        </mxCell>
        <mxCell id="fQdDnlQP9JHUQO5paGz2-14" value="series_for_epsilon(x, epsilon)&amp;nbsp;" style="shape=process;whiteSpace=wrap;html=1;backgroundOutline=1;" vertex="1" parent="1">
          <mxGeometry x="321" y="730" width="186" height="80" as="geometry" />
        </mxCell>
        <mxCell id="fQdDnlQP9JHUQO5paGz2-18" style="edgeStyle=orthogonalEdgeStyle;rounded=0;orthogonalLoop=1;jettySize=auto;html=1;entryX=1;entryY=0.5;entryDx=0;entryDy=0;" edge="1" parent="1" source="fQdDnlQP9JHUQO5paGz2-16" target="fQdDnlQP9JHUQO5paGz2-6">
          <mxGeometry relative="1" as="geometry">
            <Array as="points">
              <mxPoint x="600" y="870" />
              <mxPoint x="600" y="390" />
            </Array>
          </mxGeometry>
        </mxCell>
        <mxCell id="fQdDnlQP9JHUQO5paGz2-16" value="x+=step" style="whiteSpace=wrap;html=1;" vertex="1" parent="1">
          <mxGeometry x="354" y="840" width="120" height="60" as="geometry" />
        </mxCell>
        <mxCell id="fQdDnlQP9JHUQO5paGz2-21" value="End" style="ellipse;whiteSpace=wrap;html=1;" vertex="1" parent="1">
          <mxGeometry x="354" y="940" width="120" height="80" as="geometry" />
        </mxCell>
        <mxCell id="fQdDnlQP9JHUQO5paGz2-26" style="edgeStyle=orthogonalEdgeStyle;rounded=0;orthogonalLoop=1;jettySize=auto;html=1;entryX=0.5;entryY=0;entryDx=0;entryDy=0;" edge="1" parent="1" source="fQdDnlQP9JHUQO5paGz2-23" target="fQdDnlQP9JHUQO5paGz2-4">
          <mxGeometry relative="1" as="geometry" />
        </mxCell>
        <mxCell id="fQdDnlQP9JHUQO5paGz2-23" value="cout &amp;lt;&amp;lt; &quot;x\tExact\tSeries (n=&quot; &amp;lt;&amp;lt; n &amp;lt;&amp;lt; &quot;)\tSeries (e=&quot; &amp;lt;&amp;lt; epsilon &amp;lt;&amp;lt; &quot;)&quot; &amp;lt;&amp;lt; endl;" style="shape=parallelogram;perimeter=parallelogramPerimeter;whiteSpace=wrap;html=1;fixedSize=1;" vertex="1" parent="1">
          <mxGeometry x="278" y="180" width="272" height="60" as="geometry" />
        </mxCell>
        <mxCell id="fQdDnlQP9JHUQO5paGz2-32" value="" style="edgeStyle=orthogonalEdgeStyle;rounded=0;orthogonalLoop=1;jettySize=auto;html=1;" edge="1" parent="1" source="fQdDnlQP9JHUQO5paGz2-27" target="fQdDnlQP9JHUQO5paGz2-31">
          <mxGeometry relative="1" as="geometry" />
        </mxCell>
        <mxCell id="fQdDnlQP9JHUQO5paGz2-27" value="exact_function" style="ellipse;whiteSpace=wrap;html=1;" vertex="1" parent="1">
          <mxGeometry x="730" y="-50" width="120" height="80" as="geometry" />
        </mxCell>
        <mxCell id="fQdDnlQP9JHUQO5paGz2-36" value="" style="edgeStyle=orthogonalEdgeStyle;rounded=0;orthogonalLoop=1;jettySize=auto;html=1;" edge="1" parent="1" source="fQdDnlQP9JHUQO5paGz2-28" target="fQdDnlQP9JHUQO5paGz2-35">
          <mxGeometry relative="1" as="geometry" />
        </mxCell>
        <mxCell id="fQdDnlQP9JHUQO5paGz2-28" value="series_for_n" style="ellipse;whiteSpace=wrap;html=1;" vertex="1" parent="1">
          <mxGeometry x="1110" y="-50" width="120" height="80" as="geometry" />
        </mxCell>
        <mxCell id="fQdDnlQP9JHUQO5paGz2-34" value="" style="edgeStyle=orthogonalEdgeStyle;rounded=0;orthogonalLoop=1;jettySize=auto;html=1;" edge="1" parent="1" source="fQdDnlQP9JHUQO5paGz2-31" target="fQdDnlQP9JHUQO5paGz2-33">
          <mxGeometry relative="1" as="geometry" />
        </mxCell>
        <mxCell id="fQdDnlQP9JHUQO5paGz2-31" value="pow(3, x)" style="whiteSpace=wrap;html=1;" vertex="1" parent="1">
          <mxGeometry x="730" y="60" width="120" height="60" as="geometry" />
        </mxCell>
        <mxCell id="fQdDnlQP9JHUQO5paGz2-33" value="return pow(3, x)" style="ellipse;whiteSpace=wrap;html=1;" vertex="1" parent="1">
          <mxGeometry x="730" y="150" width="120" height="80" as="geometry" />
        </mxCell>
        <mxCell id="fQdDnlQP9JHUQO5paGz2-38" value="" style="edgeStyle=orthogonalEdgeStyle;rounded=0;orthogonalLoop=1;jettySize=auto;html=1;" edge="1" parent="1" source="fQdDnlQP9JHUQO5paGz2-35" target="fQdDnlQP9JHUQO5paGz2-37">
          <mxGeometry relative="1" as="geometry" />
        </mxCell>
        <mxCell id="fQdDnlQP9JHUQO5paGz2-35" value="double sum = 1;&lt;div&gt;double term = 1;&lt;/div&gt;&lt;div&gt;double ln3 = log(3);&lt;/div&gt;" style="whiteSpace=wrap;html=1;" vertex="1" parent="1">
          <mxGeometry x="1110" y="60" width="120" height="60" as="geometry" />
        </mxCell>
        <mxCell id="fQdDnlQP9JHUQO5paGz2-40" value="" style="edgeStyle=orthogonalEdgeStyle;rounded=0;orthogonalLoop=1;jettySize=auto;html=1;" edge="1" parent="1" source="fQdDnlQP9JHUQO5paGz2-37" target="fQdDnlQP9JHUQO5paGz2-39">
          <mxGeometry relative="1" as="geometry" />
        </mxCell>
        <mxCell id="fQdDnlQP9JHUQO5paGz2-37" value="int i = 1" style="whiteSpace=wrap;html=1;" vertex="1" parent="1">
          <mxGeometry x="1110" y="150" width="120" height="60" as="geometry" />
        </mxCell>
        <mxCell id="fQdDnlQP9JHUQO5paGz2-42" value="" style="edgeStyle=orthogonalEdgeStyle;rounded=0;orthogonalLoop=1;jettySize=auto;html=1;" edge="1" parent="1" source="fQdDnlQP9JHUQO5paGz2-39" target="fQdDnlQP9JHUQO5paGz2-41">
          <mxGeometry relative="1" as="geometry" />
        </mxCell>
        <mxCell id="fQdDnlQP9JHUQO5paGz2-46" value="true" style="edgeLabel;html=1;align=center;verticalAlign=middle;resizable=0;points=[];" vertex="1" connectable="0" parent="fQdDnlQP9JHUQO5paGz2-42">
          <mxGeometry x="-0.7661" relative="1" as="geometry">
            <mxPoint as="offset" />
          </mxGeometry>
        </mxCell>
        <mxCell id="fQdDnlQP9JHUQO5paGz2-47" style="edgeStyle=orthogonalEdgeStyle;rounded=0;orthogonalLoop=1;jettySize=auto;html=1;entryX=0.5;entryY=0;entryDx=0;entryDy=0;" edge="1" parent="1" source="fQdDnlQP9JHUQO5paGz2-39" target="fQdDnlQP9JHUQO5paGz2-49">
          <mxGeometry relative="1" as="geometry">
            <mxPoint x="1060" y="620" as="targetPoint" />
            <Array as="points">
              <mxPoint x="1020" y="280" />
              <mxPoint x="1020" y="570" />
            </Array>
          </mxGeometry>
        </mxCell>
        <mxCell id="fQdDnlQP9JHUQO5paGz2-48" value="false" style="edgeLabel;html=1;align=center;verticalAlign=middle;resizable=0;points=[];" vertex="1" connectable="0" parent="fQdDnlQP9JHUQO5paGz2-47">
          <mxGeometry x="-0.2269" y="1" relative="1" as="geometry">
            <mxPoint as="offset" />
          </mxGeometry>
        </mxCell>
        <mxCell id="fQdDnlQP9JHUQO5paGz2-39" value="i &amp;lt;= n" style="rhombus;whiteSpace=wrap;html=1;" vertex="1" parent="1">
          <mxGeometry x="1130" y="240" width="80" height="80" as="geometry" />
        </mxCell>
        <mxCell id="fQdDnlQP9JHUQO5paGz2-44" value="" style="edgeStyle=orthogonalEdgeStyle;rounded=0;orthogonalLoop=1;jettySize=auto;html=1;" edge="1" parent="1" source="fQdDnlQP9JHUQO5paGz2-41" target="fQdDnlQP9JHUQO5paGz2-43">
          <mxGeometry relative="1" as="geometry" />
        </mxCell>
        <mxCell id="fQdDnlQP9JHUQO5paGz2-41" value="term *= (x * ln3) / i;&lt;div&gt;sum += term;&lt;/div&gt;" style="whiteSpace=wrap;html=1;" vertex="1" parent="1">
          <mxGeometry x="1110" y="350" width="120" height="60" as="geometry" />
        </mxCell>
        <mxCell id="fQdDnlQP9JHUQO5paGz2-45" style="edgeStyle=orthogonalEdgeStyle;rounded=0;orthogonalLoop=1;jettySize=auto;html=1;entryX=1;entryY=0.5;entryDx=0;entryDy=0;" edge="1" parent="1" source="fQdDnlQP9JHUQO5paGz2-43" target="fQdDnlQP9JHUQO5paGz2-39">
          <mxGeometry relative="1" as="geometry">
            <Array as="points">
              <mxPoint x="1300" y="480" />
              <mxPoint x="1300" y="280" />
            </Array>
          </mxGeometry>
        </mxCell>
        <mxCell id="fQdDnlQP9JHUQO5paGz2-43" value="i++" style="whiteSpace=wrap;html=1;" vertex="1" parent="1">
          <mxGeometry x="1110" y="450" width="120" height="60" as="geometry" />
        </mxCell>
        <mxCell id="fQdDnlQP9JHUQO5paGz2-49" value="return sum" style="ellipse;whiteSpace=wrap;html=1;" vertex="1" parent="1">
          <mxGeometry x="1110" y="580" width="120" height="80" as="geometry" />
        </mxCell>
        <mxCell id="fQdDnlQP9JHUQO5paGz2-52" value="" style="edgeStyle=orthogonalEdgeStyle;rounded=0;orthogonalLoop=1;jettySize=auto;html=1;" edge="1" parent="1" source="fQdDnlQP9JHUQO5paGz2-50" target="fQdDnlQP9JHUQO5paGz2-51">
          <mxGeometry relative="1" as="geometry" />
        </mxCell>
        <mxCell id="fQdDnlQP9JHUQO5paGz2-50" value="series_for_epsilon" style="ellipse;whiteSpace=wrap;html=1;" vertex="1" parent="1">
          <mxGeometry x="1460" y="-50" width="120" height="80" as="geometry" />
        </mxCell>
        <mxCell id="fQdDnlQP9JHUQO5paGz2-54" value="" style="edgeStyle=orthogonalEdgeStyle;rounded=0;orthogonalLoop=1;jettySize=auto;html=1;" edge="1" parent="1" source="fQdDnlQP9JHUQO5paGz2-51" target="fQdDnlQP9JHUQO5paGz2-53">
          <mxGeometry relative="1" as="geometry" />
        </mxCell>
        <mxCell id="fQdDnlQP9JHUQO5paGz2-51" value="double sum = 1;&lt;div&gt;double term = 1;&lt;/div&gt;&lt;div&gt;double ln3 = log(3);&lt;/div&gt;" style="whiteSpace=wrap;html=1;" vertex="1" parent="1">
          <mxGeometry x="1460" y="60" width="120" height="60" as="geometry" />
        </mxCell>
        <mxCell id="fQdDnlQP9JHUQO5paGz2-56" value="" style="edgeStyle=orthogonalEdgeStyle;rounded=0;orthogonalLoop=1;jettySize=auto;html=1;" edge="1" parent="1" source="fQdDnlQP9JHUQO5paGz2-53" target="fQdDnlQP9JHUQO5paGz2-55">
          <mxGeometry relative="1" as="geometry" />
        </mxCell>
        <mxCell id="fQdDnlQP9JHUQO5paGz2-53" value="int i = 1" style="whiteSpace=wrap;html=1;" vertex="1" parent="1">
          <mxGeometry x="1460" y="150" width="120" height="60" as="geometry" />
        </mxCell>
        <mxCell id="fQdDnlQP9JHUQO5paGz2-60" value="" style="edgeStyle=orthogonalEdgeStyle;rounded=0;orthogonalLoop=1;jettySize=auto;html=1;" edge="1" parent="1" source="fQdDnlQP9JHUQO5paGz2-55" target="fQdDnlQP9JHUQO5paGz2-59">
          <mxGeometry relative="1" as="geometry" />
        </mxCell>
        <mxCell id="fQdDnlQP9JHUQO5paGz2-61" value="true" style="edgeLabel;html=1;align=center;verticalAlign=middle;resizable=0;points=[];" vertex="1" connectable="0" parent="fQdDnlQP9JHUQO5paGz2-60">
          <mxGeometry x="-0.36" y="4" relative="1" as="geometry">
            <mxPoint as="offset" />
          </mxGeometry>
        </mxCell>
        <mxCell id="fQdDnlQP9JHUQO5paGz2-64" style="edgeStyle=orthogonalEdgeStyle;rounded=0;orthogonalLoop=1;jettySize=auto;html=1;entryX=0;entryY=0.5;entryDx=0;entryDy=0;" edge="1" parent="1" source="fQdDnlQP9JHUQO5paGz2-55" target="fQdDnlQP9JHUQO5paGz2-63">
          <mxGeometry relative="1" as="geometry">
            <Array as="points">
              <mxPoint x="1430" y="290" />
              <mxPoint x="1430" y="510" />
            </Array>
          </mxGeometry>
        </mxCell>
        <mxCell id="fQdDnlQP9JHUQO5paGz2-65" value="false" style="edgeLabel;html=1;align=center;verticalAlign=middle;resizable=0;points=[];" vertex="1" connectable="0" parent="fQdDnlQP9JHUQO5paGz2-64">
          <mxGeometry x="-0.2573" y="4" relative="1" as="geometry">
            <mxPoint as="offset" />
          </mxGeometry>
        </mxCell>
        <mxCell id="fQdDnlQP9JHUQO5paGz2-55" value="while(fabs(term) &amp;gt; epsilon)" style="rhombus;whiteSpace=wrap;html=1;" vertex="1" parent="1">
          <mxGeometry x="1450" y="250" width="140" height="80" as="geometry" />
        </mxCell>
        <mxCell id="fQdDnlQP9JHUQO5paGz2-59" value="term *= (x * ln3) / i;&lt;div&gt;sum += term;&lt;/div&gt;&lt;div&gt;i++&lt;/div&gt;" style="whiteSpace=wrap;html=1;" vertex="1" parent="1">
          <mxGeometry x="1460" y="380" width="120" height="60" as="geometry" />
        </mxCell>
        <mxCell id="fQdDnlQP9JHUQO5paGz2-63" value="return sum" style="ellipse;whiteSpace=wrap;html=1;" vertex="1" parent="1">
          <mxGeometry x="1470" y="470" width="120" height="80" as="geometry" />
        </mxCell>
      </root>
    </mxGraphModel>
  </diagram>
</mxfile>
